name ./resultDataOpenSim/trcMotMarkerGrf/sub09/grf-15-06.mot
datacolumns 19
datarows 15
range 0.50000000 0.55600000
endheader

                time	     ground_force_vx	     ground_force_vy	     ground_force_vz	     ground_force_px	     ground_force_py	     ground_force_pz	   l_ground_force_vx	   l_ground_force_vy	   l_ground_force_vz	   l_ground_force_px	   l_ground_force_py	   l_ground_force_pz	     ground_torque_x	     ground_torque_y	     ground_torque_z	   l_ground_torque_x	   l_ground_torque_y	   l_ground_torque_z	
          0.50000000	         47.13563118	        436.46301260	         -8.85211659	         -0.74284853	          0.00000000	          0.10856432	          0.00000000	          0.00000000	          0.00000000	          0.00000000	          0.00000000	          0.00000000	          0.00000000	          7.44697322	          0.00000000	          0.00000000	          0.00000000	          0.00000000	
          0.50400000	         49.34194554	        446.50046796	        -10.91678543	         -0.74088750	          0.00000000	          0.10929736	          0.00000000	          0.00000000	          0.00000000	          0.00000000	          0.00000000	          0.00000000	          0.00000000	          7.54141833	          0.00000000	          0.00000000	          0.00000000	          0.00000000	
          0.50800000	         51.07848954	        457.20165427	        -13.48242670	         -0.73876426	          0.00000000	          0.11006963	          0.00000000	          0.00000000	          0.00000000	          0.00000000	          0.00000000	          0.00000000	          0.00000000	          7.56468426	          0.00000000	          0.00000000	          0.00000000	          0.00000000	
          0.51200000	         52.52480834	        468.69079834	        -16.64778801	         -0.73655511	          0.00000000	          0.11085240	          0.00000000	          0.00000000	          0.00000000	          0.00000000	          0.00000000	          0.00000000	          0.00000000	          7.50391922	          0.00000000	          0.00000000	          0.00000000	          0.00000000	
          0.51600000	         53.90919967	        481.08755308	        -20.41497864	         -0.73436928	          0.00000000	          0.11160204	          0.00000000	          0.00000000	          0.00000000	          0.00000000	          0.00000000	          0.00000000	          0.00000000	          7.35464691	          0.00000000	          0.00000000	          0.00000000	          0.00000000	
          0.52000000	         55.45639510	        494.44853792	        -24.65181269	         -0.73233527	          0.00000000	          0.11226987	          0.00000000	          0.00000000	          0.00000000	          0.00000000	          0.00000000	          0.00000000	          0.00000000	          7.12369105	          0.00000000	          0.00000000	          0.00000000	          0.00000000	
          0.52400000	         57.35473062	        508.65044761	        -29.10221785	         -0.73049806	          0.00000000	          0.11285990	          0.00000000	          0.00000000	          0.00000000	          0.00000000	          0.00000000	          0.00000000	          0.00000000	          6.82961495	          0.00000000	          0.00000000	          0.00000000	          0.00000000	
          0.52800000	         59.70082546	        523.41230862	        -33.45215717	         -0.72877398	          0.00000000	          0.11341830	          0.00000000	          0.00000000	          0.00000000	          0.00000000	          0.00000000	          0.00000000	          0.00000000	          6.50046360	          0.00000000	          0.00000000	          0.00000000	          0.00000000	
          0.53200000	         62.46866192	        538.51267839	        -37.39807264	         -0.72704406	          0.00000000	          0.11396007	          0.00000000	          0.00000000	          0.00000000	          0.00000000	          0.00000000	          0.00000000	          0.00000000	          6.16916373	          0.00000000	          0.00000000	          0.00000000	          0.00000000	
          0.53600000	         65.55902441	        553.95594564	        -40.68210082	         -0.72532251	          0.00000000	          0.11442245	          0.00000000	          0.00000000	          0.00000000	          0.00000000	          0.00000000	          0.00000000	          0.00000000	          5.86742335	          0.00000000	          0.00000000	          0.00000000	          0.00000000	
          0.54000000	         68.85985072	        569.88690177	        -43.12521820	         -0.72374167	          0.00000000	          0.11471393	          0.00000000	          0.00000000	          0.00000000	          0.00000000	          0.00000000	          0.00000000	          0.00000000	          5.61950017	          0.00000000	          0.00000000	          0.00000000	          0.00000000	
          0.54400000	         72.24739713	        586.35265002	        -44.66929286	         -0.72238328	          0.00000000	          0.11479637	          0.00000000	          0.00000000	          0.00000000	          0.00000000	          0.00000000	          0.00000000	          0.00000000	          5.43751987	          0.00000000	          0.00000000	          0.00000000	          0.00000000	
          0.54800000	         75.58794786	        603.16339105	        -45.38443546	         -0.72117480	          0.00000000	          0.11471081	          0.00000000	          0.00000000	          0.00000000	          0.00000000	          0.00000000	          0.00000000	          0.00000000	          5.31968845	          0.00000000	          0.00000000	          0.00000000	          0.00000000	
          0.55200000	         78.79758575	        619.99456762	        -45.43015069	         -0.71996462	          0.00000000	          0.11453873	          0.00000000	          0.00000000	          0.00000000	          0.00000000	          0.00000000	          0.00000000	          0.00000000	          5.25177287	          0.00000000	          0.00000000	          0.00000000	          0.00000000	
          0.55600000	         81.90335331	        636.63209778	        -45.00046949	         -0.71868709	          0.00000000	          0.11432973	          0.00000000	          0.00000000	          0.00000000	          0.00000000	          0.00000000	          0.00000000	          0.00000000	          5.21117950	          0.00000000	          0.00000000	          0.00000000	          0.00000000	
